<?xml version="1.0" encoding="utf-8"?>
<!-- Generator: Adobe Illustrator 18.0.0, SVG Export Plug-In . SVG Version: 6.00 Build 0)  -->
<!DOCTYPE svg PUBLIC "-//W3C//DTD SVG 1.1//EN" "http://www.w3.org/Graphics/SVG/1.1/DTD/svg11.dtd">
<svg version="1.1" id="Layer_1" xmlns="http://www.w3.org/2000/svg" xmlns:xlink="http://www.w3.org/1999/xlink" x="0px" y="0px"
	 viewBox="0 0 512 512" enable-background="new 0 0 512 512" xml:space="preserve">
<path fill="#F8F8F8" d="M255.47,371.15c-63.48,0-115.12-51.63-115.12-115.09s51.64-115.09,115.12-115.09s115.12,51.63,115.12,115.09
	S318.95,371.15,255.47,371.15z"/>
<path fill="#0F5B94" d="M256,164.91c-50.25,0-91.12,40.86-91.12,91.09s40.88,91.09,91.12,91.09s91.12-40.86,91.12-91.09
	S306.25,164.91,256,164.91z"/>
<path fill="#F7C616" d="M485.78,142.44H273.78c54.81,8.8,96.81,56.4,96.81,113.62c0,29.94-11.5,57.23-30.3,77.73l-104.3,177.47
	c141.35,10.68,264.59-95.2,275.28-236.5C514.72,229.17,505.92,183.48,485.78,142.44z"/>
<path fill="#DF2227" d="M140.35,256.06c0-63.46,51.64-115.09,115.12-115.09c6.23,0,12.35,0.5,18.31,1.46h211.99
	C422.69,15.54,268.64-36.2,141.71,26.87C102.13,46.53,68.3,76.08,43.5,112.66l101.55,175.96
	C141.99,278.29,140.35,267.36,140.35,256.06z"/>
<path fill="#4CB749" d="M255.47,371.15c-52.17,0-96.34-34.88-110.43-82.54L43.5,112.66c-78.93,117.7-47.47,277.08,70.27,355.98
	c36.43,24.41,78.51,39.09,122.22,42.62l104.3-177.47C319.23,356.74,289,371.15,255.47,371.15z"/>
</svg>
